<mxfile host="Electron" modified="2023-05-29T11:53:46.884Z" agent="Mozilla/5.0 (Windows NT 10.0; Win64; x64) AppleWebKit/537.36 (KHTML, like Gecko) draw.io/21.2.8 Chrome/112.0.5615.165 Electron/24.2.0 Safari/537.36" etag="-JxmCdMnTQ9LKJsg6qI0" version="21.2.8" type="device">
  <diagram name="Page-1" id="RZPnwS6dfVaFgMH__Zw5">
    <mxGraphModel dx="744" dy="472" grid="1" gridSize="10" guides="1" tooltips="1" connect="1" arrows="1" fold="1" page="1" pageScale="1" pageWidth="850" pageHeight="1100" math="0" shadow="0">
      <root>
        <mxCell id="0" />
        <mxCell id="1" parent="0" />
        <mxCell id="Hsg0qd-Us_dWh3IZjGWF-48" style="edgeStyle=orthogonalEdgeStyle;rounded=0;orthogonalLoop=1;jettySize=auto;html=1;" edge="1" parent="1" source="Hsg0qd-Us_dWh3IZjGWF-1" target="Hsg0qd-Us_dWh3IZjGWF-2">
          <mxGeometry relative="1" as="geometry" />
        </mxCell>
        <mxCell id="Hsg0qd-Us_dWh3IZjGWF-1" value="mulai" style="ellipse;whiteSpace=wrap;html=1;" vertex="1" parent="1">
          <mxGeometry x="40" y="20" width="90" height="60" as="geometry" />
        </mxCell>
        <mxCell id="Hsg0qd-Us_dWh3IZjGWF-50" style="edgeStyle=orthogonalEdgeStyle;rounded=0;orthogonalLoop=1;jettySize=auto;html=1;entryX=0.5;entryY=0;entryDx=0;entryDy=0;" edge="1" parent="1" source="Hsg0qd-Us_dWh3IZjGWF-2" target="Hsg0qd-Us_dWh3IZjGWF-3">
          <mxGeometry relative="1" as="geometry" />
        </mxCell>
        <mxCell id="Hsg0qd-Us_dWh3IZjGWF-2" value="#include &amp;lt;LiquidCrystal_I2C.h&amp;gt;&amp;nbsp;&lt;br&gt;#include &amp;lt;Keypad.h&amp;gt;&lt;br&gt;#include &amp;lt;Wire.h&amp;gt;&amp;nbsp;&lt;br&gt;" style="rounded=1;whiteSpace=wrap;html=1;" vertex="1" parent="1">
          <mxGeometry x="17.5" y="100" width="135" height="70" as="geometry" />
        </mxCell>
        <mxCell id="Hsg0qd-Us_dWh3IZjGWF-51" style="edgeStyle=orthogonalEdgeStyle;rounded=0;orthogonalLoop=1;jettySize=auto;html=1;" edge="1" parent="1" source="Hsg0qd-Us_dWh3IZjGWF-3" target="Hsg0qd-Us_dWh3IZjGWF-4">
          <mxGeometry relative="1" as="geometry" />
        </mxCell>
        <mxCell id="Hsg0qd-Us_dWh3IZjGWF-3" value="LiquidCrystal_I2C lcd(0x27, 16, 2);" style="rounded=1;whiteSpace=wrap;html=1;" vertex="1" parent="1">
          <mxGeometry x="25" y="200" width="120" height="60" as="geometry" />
        </mxCell>
        <mxCell id="Hsg0qd-Us_dWh3IZjGWF-52" style="edgeStyle=orthogonalEdgeStyle;rounded=0;orthogonalLoop=1;jettySize=auto;html=1;entryX=0.407;entryY=-0.041;entryDx=0;entryDy=0;entryPerimeter=0;" edge="1" parent="1" source="Hsg0qd-Us_dWh3IZjGWF-4" target="Hsg0qd-Us_dWh3IZjGWF-21">
          <mxGeometry relative="1" as="geometry" />
        </mxCell>
        <mxCell id="Hsg0qd-Us_dWh3IZjGWF-4" value="const byte RELAY = 10,&lt;br&gt;const byte BUTTON = 11;&lt;br&gt;const byte batasHarga = 7;&lt;br&gt;const byte rows = 4;&amp;nbsp; &amp;nbsp;&lt;br&gt;const byte cols = 4;&lt;br&gt;" style="rounded=1;whiteSpace=wrap;html=1;" vertex="1" parent="1">
          <mxGeometry x="11.25" y="300" width="147.5" height="90" as="geometry" />
        </mxCell>
        <mxCell id="Hsg0qd-Us_dWh3IZjGWF-57" style="edgeStyle=orthogonalEdgeStyle;rounded=0;orthogonalLoop=1;jettySize=auto;html=1;entryX=0.571;entryY=0.039;entryDx=0;entryDy=0;entryPerimeter=0;" edge="1" parent="1" source="Hsg0qd-Us_dWh3IZjGWF-5" target="Hsg0qd-Us_dWh3IZjGWF-9">
          <mxGeometry relative="1" as="geometry" />
        </mxCell>
        <mxCell id="Hsg0qd-Us_dWh3IZjGWF-5" value="int cursor = 3,&lt;br&gt;byte inputKey = 0,&lt;br&gt;int showNumber = 0;&amp;nbsp;" style="rounded=0;whiteSpace=wrap;html=1;" vertex="1" parent="1">
          <mxGeometry x="15" y="760" width="155" height="60" as="geometry" />
        </mxCell>
        <mxCell id="Hsg0qd-Us_dWh3IZjGWF-68" style="edgeStyle=orthogonalEdgeStyle;rounded=0;orthogonalLoop=1;jettySize=auto;html=1;entryX=0.5;entryY=0;entryDx=0;entryDy=0;" edge="1" parent="1" source="Hsg0qd-Us_dWh3IZjGWF-6" target="Hsg0qd-Us_dWh3IZjGWF-13">
          <mxGeometry relative="1" as="geometry" />
        </mxCell>
        <mxCell id="Hsg0qd-Us_dWh3IZjGWF-6" value="char counter[batasHarga]" style="rounded=0;whiteSpace=wrap;html=1;" vertex="1" parent="1">
          <mxGeometry x="290" y="180" width="120" height="60" as="geometry" />
        </mxCell>
        <mxCell id="Hsg0qd-Us_dWh3IZjGWF-62" style="edgeStyle=orthogonalEdgeStyle;rounded=0;orthogonalLoop=1;jettySize=auto;html=1;" edge="1" parent="1" source="Hsg0qd-Us_dWh3IZjGWF-9">
          <mxGeometry relative="1" as="geometry">
            <mxPoint x="83.25" y="970" as="targetPoint" />
          </mxGeometry>
        </mxCell>
        <mxCell id="Hsg0qd-Us_dWh3IZjGWF-9" value="&lt;b&gt;Void setup()&lt;br&gt;&lt;/b&gt;&lt;div&gt;&lt;span style=&quot;white-space: pre;&quot;&gt;	&lt;/span&gt;lcd.begin();&amp;nbsp; &amp;nbsp; &amp;nbsp; &amp;nbsp; &amp;nbsp; &amp;nbsp;&lt;span style=&quot;white-space: pre;&quot;&gt;	&lt;/span&gt;&lt;span style=&quot;background-color: initial;&quot;&gt;lcd.backlight();&amp;nbsp; &amp;nbsp; &amp;nbsp; &amp;nbsp; &amp;nbsp; &amp;nbsp; &amp;nbsp;&lt;/span&gt;&lt;/div&gt;" style="rounded=1;whiteSpace=wrap;html=1;" vertex="1" parent="1">
          <mxGeometry x="15" y="870" width="136.5" height="60" as="geometry" />
        </mxCell>
        <mxCell id="Hsg0qd-Us_dWh3IZjGWF-65" style="edgeStyle=orthogonalEdgeStyle;rounded=0;orthogonalLoop=1;jettySize=auto;html=1;entryX=0.5;entryY=0;entryDx=0;entryDy=0;" edge="1" parent="1" source="Hsg0qd-Us_dWh3IZjGWF-11" target="Hsg0qd-Us_dWh3IZjGWF-17">
          <mxGeometry relative="1" as="geometry" />
        </mxCell>
        <mxCell id="Hsg0qd-Us_dWh3IZjGWF-11" value="Serial.begin(9600);" style="rounded=0;whiteSpace=wrap;html=1;" vertex="1" parent="1">
          <mxGeometry x="10" y="1200" width="125" height="50" as="geometry" />
        </mxCell>
        <mxCell id="Hsg0qd-Us_dWh3IZjGWF-67" style="rounded=0;orthogonalLoop=1;jettySize=auto;html=1;entryX=0.5;entryY=0;entryDx=0;entryDy=0;" edge="1" parent="1" source="Hsg0qd-Us_dWh3IZjGWF-12" target="Hsg0qd-Us_dWh3IZjGWF-6">
          <mxGeometry relative="1" as="geometry" />
        </mxCell>
        <mxCell id="Hsg0qd-Us_dWh3IZjGWF-12" value="&lt;b&gt;void loop()&lt;/b&gt;&lt;br&gt;membuat variabel customkey sebagai keypad" style="rounded=1;whiteSpace=wrap;html=1;" vertex="1" parent="1">
          <mxGeometry x="290" y="40" width="120" height="60" as="geometry" />
        </mxCell>
        <mxCell id="Hsg0qd-Us_dWh3IZjGWF-69" style="edgeStyle=orthogonalEdgeStyle;rounded=0;orthogonalLoop=1;jettySize=auto;html=1;" edge="1" parent="1" source="Hsg0qd-Us_dWh3IZjGWF-73">
          <mxGeometry relative="1" as="geometry">
            <mxPoint x="350" y="510" as="targetPoint" />
          </mxGeometry>
        </mxCell>
        <mxCell id="Hsg0qd-Us_dWh3IZjGWF-70" style="edgeStyle=orthogonalEdgeStyle;rounded=0;orthogonalLoop=1;jettySize=auto;html=1;" edge="1" parent="1" source="Hsg0qd-Us_dWh3IZjGWF-77">
          <mxGeometry relative="1" as="geometry">
            <mxPoint x="510" y="350" as="targetPoint" />
          </mxGeometry>
        </mxCell>
        <mxCell id="Hsg0qd-Us_dWh3IZjGWF-13" value="&amp;nbsp;if customkey=&quot;#&quot;" style="rhombus;whiteSpace=wrap;html=1;" vertex="1" parent="1">
          <mxGeometry x="295" y="300" width="110" height="90" as="geometry" />
        </mxCell>
        <mxCell id="Hsg0qd-Us_dWh3IZjGWF-63" style="edgeStyle=orthogonalEdgeStyle;rounded=0;orthogonalLoop=1;jettySize=auto;html=1;entryX=0.575;entryY=-0.039;entryDx=0;entryDy=0;entryPerimeter=0;" edge="1" parent="1" source="Hsg0qd-Us_dWh3IZjGWF-15" target="Hsg0qd-Us_dWh3IZjGWF-16">
          <mxGeometry relative="1" as="geometry" />
        </mxCell>
        <mxCell id="Hsg0qd-Us_dWh3IZjGWF-15" value="Relay,OUTPUT" style="shape=parallelogram;perimeter=parallelogramPerimeter;whiteSpace=wrap;html=1;fixedSize=1;" vertex="1" parent="1">
          <mxGeometry x="23.5" y="975" width="120" height="60" as="geometry" />
        </mxCell>
        <mxCell id="Hsg0qd-Us_dWh3IZjGWF-64" style="rounded=0;orthogonalLoop=1;jettySize=auto;html=1;entryX=0.5;entryY=0;entryDx=0;entryDy=0;" edge="1" parent="1" source="Hsg0qd-Us_dWh3IZjGWF-16" target="Hsg0qd-Us_dWh3IZjGWF-11">
          <mxGeometry relative="1" as="geometry" />
        </mxCell>
        <mxCell id="Hsg0qd-Us_dWh3IZjGWF-16" value="Button,INPUT" style="shape=parallelogram;perimeter=parallelogramPerimeter;whiteSpace=wrap;html=1;fixedSize=1;" vertex="1" parent="1">
          <mxGeometry x="15" y="1090" width="120" height="60" as="geometry" />
        </mxCell>
        <mxCell id="Hsg0qd-Us_dWh3IZjGWF-66" style="edgeStyle=orthogonalEdgeStyle;rounded=0;orthogonalLoop=1;jettySize=auto;html=1;entryX=0;entryY=0.5;entryDx=0;entryDy=0;" edge="1" parent="1" source="Hsg0qd-Us_dWh3IZjGWF-17" target="Hsg0qd-Us_dWh3IZjGWF-12">
          <mxGeometry relative="1" as="geometry" />
        </mxCell>
        <mxCell id="Hsg0qd-Us_dWh3IZjGWF-17" value="call start_display&lt;br&gt;(&quot;Masukkan nominal&quot;)" style="shape=process;whiteSpace=wrap;html=1;backgroundOutline=1;" vertex="1" parent="1">
          <mxGeometry x="17.5" y="1300" width="110" height="60" as="geometry" />
        </mxCell>
        <mxCell id="Hsg0qd-Us_dWh3IZjGWF-78" style="edgeStyle=orthogonalEdgeStyle;rounded=0;orthogonalLoop=1;jettySize=auto;html=1;" edge="1" parent="1" source="Hsg0qd-Us_dWh3IZjGWF-18" target="Hsg0qd-Us_dWh3IZjGWF-19">
          <mxGeometry relative="1" as="geometry" />
        </mxCell>
        <mxCell id="Hsg0qd-Us_dWh3IZjGWF-18" value="call&amp;nbsp;&lt;br&gt;sart_display(&quot;Silahkan isi&quot;)" style="shape=process;whiteSpace=wrap;html=1;backgroundOutline=1;" vertex="1" parent="1">
          <mxGeometry x="285" y="515" width="150" height="70" as="geometry" />
        </mxCell>
        <mxCell id="Hsg0qd-Us_dWh3IZjGWF-79" style="rounded=0;orthogonalLoop=1;jettySize=auto;html=1;" edge="1" parent="1" source="Hsg0qd-Us_dWh3IZjGWF-82" target="Hsg0qd-Us_dWh3IZjGWF-20">
          <mxGeometry relative="1" as="geometry" />
        </mxCell>
        <mxCell id="Hsg0qd-Us_dWh3IZjGWF-80" style="edgeStyle=orthogonalEdgeStyle;rounded=0;orthogonalLoop=1;jettySize=auto;html=1;" edge="1" parent="1" source="Hsg0qd-Us_dWh3IZjGWF-19">
          <mxGeometry relative="1" as="geometry">
            <mxPoint x="490" y="735" as="targetPoint" />
          </mxGeometry>
        </mxCell>
        <mxCell id="Hsg0qd-Us_dWh3IZjGWF-19" value="&lt;font style=&quot;font-size: 14px;&quot;&gt;else if customkey=&quot;*&quot;&lt;/font&gt;" style="rhombus;whiteSpace=wrap;html=1;" vertex="1" parent="1">
          <mxGeometry x="305" y="685" width="110" height="100" as="geometry" />
        </mxCell>
        <mxCell id="Hsg0qd-Us_dWh3IZjGWF-84" style="edgeStyle=orthogonalEdgeStyle;rounded=0;orthogonalLoop=1;jettySize=auto;html=1;entryX=0.5;entryY=0;entryDx=0;entryDy=0;" edge="1" parent="1" source="Hsg0qd-Us_dWh3IZjGWF-20" target="Hsg0qd-Us_dWh3IZjGWF-28">
          <mxGeometry relative="1" as="geometry" />
        </mxCell>
        <mxCell id="Hsg0qd-Us_dWh3IZjGWF-20" value="&amp;nbsp;memset(counter, 0, sizeof(counter));&amp;nbsp; &amp;nbsp;&lt;br&gt;&amp;nbsp;cursor = 3;&lt;br&gt;&amp;nbsp; &amp;nbsp; &amp;nbsp; inputKey = 0;&lt;br&gt;&amp;nbsp; &amp;nbsp; showNumber = 0;&amp;nbsp;&amp;nbsp;&amp;nbsp; &amp;nbsp; &amp;nbsp; &amp;nbsp; &amp;nbsp; &amp;nbsp; &amp;nbsp; &amp;nbsp; &amp;nbsp; &amp;nbsp; &amp;nbsp; &amp;nbsp; &amp;nbsp; &amp;nbsp; &amp;nbsp; &amp;nbsp; &amp;nbsp; &amp;nbsp;&amp;nbsp;" style="rounded=1;whiteSpace=wrap;html=1;" vertex="1" parent="1">
          <mxGeometry x="295" y="860" width="130" height="90" as="geometry" />
        </mxCell>
        <mxCell id="Hsg0qd-Us_dWh3IZjGWF-53" style="edgeStyle=orthogonalEdgeStyle;rounded=0;orthogonalLoop=1;jettySize=auto;html=1;entryX=0.5;entryY=0;entryDx=0;entryDy=0;" edge="1" parent="1" source="Hsg0qd-Us_dWh3IZjGWF-21" target="Hsg0qd-Us_dWh3IZjGWF-22">
          <mxGeometry relative="1" as="geometry" />
        </mxCell>
        <mxCell id="Hsg0qd-Us_dWh3IZjGWF-21" value="&lt;div&gt;char keys[rows][cols] = {&lt;/div&gt;&lt;div&gt;&amp;nbsp; {&#39;1&#39;,&#39;2&#39;,&#39;3&#39;,&#39;A&#39;},&amp;nbsp; &amp;nbsp; &amp;nbsp; &amp;nbsp; &amp;nbsp; &amp;nbsp; &amp;nbsp; &amp;nbsp; &amp;nbsp;&amp;nbsp;&lt;/div&gt;&lt;div&gt;&amp;nbsp; {&#39;4&#39;,&#39;5&#39;,&#39;6&#39;,&#39;B&#39;},&amp;nbsp; &amp;nbsp; &amp;nbsp; &amp;nbsp; &amp;nbsp; &amp;nbsp; &amp;nbsp; &amp;nbsp; &amp;nbsp;&amp;nbsp;&lt;/div&gt;&lt;div&gt;&amp;nbsp; {&#39;7&#39;,&#39;8&#39;,&#39;9&#39;,&#39;C&#39;},&amp;nbsp; &amp;nbsp; &amp;nbsp; &amp;nbsp; &amp;nbsp; &amp;nbsp; &amp;nbsp; &amp;nbsp; &amp;nbsp;&amp;nbsp;&lt;/div&gt;&lt;div&gt;&amp;nbsp; {&#39;*&#39;,&#39;0&#39;,&#39;#&#39;,&#39;D&#39;}&amp;nbsp; &amp;nbsp; &amp;nbsp; &amp;nbsp; &amp;nbsp; &amp;nbsp; &amp;nbsp; &amp;nbsp; &amp;nbsp; &amp;nbsp;&lt;/div&gt;&lt;div&gt;};&lt;/div&gt;" style="rounded=0;whiteSpace=wrap;html=1;" vertex="1" parent="1">
          <mxGeometry x="10" y="420" width="165" height="90" as="geometry" />
        </mxCell>
        <mxCell id="Hsg0qd-Us_dWh3IZjGWF-54" style="edgeStyle=orthogonalEdgeStyle;rounded=0;orthogonalLoop=1;jettySize=auto;html=1;entryX=0.564;entryY=-0.014;entryDx=0;entryDy=0;entryPerimeter=0;" edge="1" parent="1" source="Hsg0qd-Us_dWh3IZjGWF-22" target="Hsg0qd-Us_dWh3IZjGWF-24">
          <mxGeometry relative="1" as="geometry" />
        </mxCell>
        <mxCell id="Hsg0qd-Us_dWh3IZjGWF-22" value="&lt;div&gt;byte rowPins[rows] = {9, 8, 7, 6};&amp;nbsp; &amp;nbsp;&lt;/div&gt;&lt;div&gt;byte colPins[cols] = {5, 4, 3, 2};&amp;nbsp; &amp;nbsp;&lt;/div&gt;" style="rounded=1;whiteSpace=wrap;html=1;" vertex="1" parent="1">
          <mxGeometry x="32.5" y="555" width="120" height="60" as="geometry" />
        </mxCell>
        <mxCell id="Hsg0qd-Us_dWh3IZjGWF-55" style="edgeStyle=orthogonalEdgeStyle;rounded=0;orthogonalLoop=1;jettySize=auto;html=1;entryX=0.443;entryY=-0.006;entryDx=0;entryDy=0;entryPerimeter=0;" edge="1" parent="1" source="Hsg0qd-Us_dWh3IZjGWF-24" target="Hsg0qd-Us_dWh3IZjGWF-5">
          <mxGeometry relative="1" as="geometry" />
        </mxCell>
        <mxCell id="Hsg0qd-Us_dWh3IZjGWF-24" value="Keypad keypad = Keypad( makeKeymap(keys), rowPins, colPins, rows, cols );" style="rounded=1;whiteSpace=wrap;html=1;" vertex="1" parent="1">
          <mxGeometry x="10" y="650" width="147" height="70" as="geometry" />
        </mxCell>
        <mxCell id="Hsg0qd-Us_dWh3IZjGWF-85" style="edgeStyle=orthogonalEdgeStyle;rounded=0;orthogonalLoop=1;jettySize=auto;html=1;entryX=0.5;entryY=0;entryDx=0;entryDy=0;" edge="1" parent="1" source="Hsg0qd-Us_dWh3IZjGWF-28" target="Hsg0qd-Us_dWh3IZjGWF-29">
          <mxGeometry relative="1" as="geometry" />
        </mxCell>
        <mxCell id="Hsg0qd-Us_dWh3IZjGWF-28" value="call&lt;br&gt;start_display(&quot;Masukkan Nominal&quot;,&quot;Input&quot;);" style="shape=process;whiteSpace=wrap;html=1;backgroundOutline=1;" vertex="1" parent="1">
          <mxGeometry x="280" y="1000" width="160" height="60" as="geometry" />
        </mxCell>
        <mxCell id="Hsg0qd-Us_dWh3IZjGWF-86" style="edgeStyle=orthogonalEdgeStyle;rounded=0;orthogonalLoop=1;jettySize=auto;html=1;entryX=0.5;entryY=0;entryDx=0;entryDy=0;" edge="1" parent="1" source="Hsg0qd-Us_dWh3IZjGWF-99" target="Hsg0qd-Us_dWh3IZjGWF-30">
          <mxGeometry relative="1" as="geometry" />
        </mxCell>
        <mxCell id="Hsg0qd-Us_dWh3IZjGWF-87" style="edgeStyle=orthogonalEdgeStyle;rounded=0;orthogonalLoop=1;jettySize=auto;html=1;" edge="1" parent="1" source="Hsg0qd-Us_dWh3IZjGWF-29">
          <mxGeometry relative="1" as="geometry">
            <mxPoint x="510" y="1155" as="targetPoint" />
          </mxGeometry>
        </mxCell>
        <mxCell id="Hsg0qd-Us_dWh3IZjGWF-29" value="else if (customKey)" style="rhombus;whiteSpace=wrap;html=1;" vertex="1" parent="1">
          <mxGeometry x="310" y="1110" width="100" height="90" as="geometry" />
        </mxCell>
        <mxCell id="Hsg0qd-Us_dWh3IZjGWF-88" style="edgeStyle=orthogonalEdgeStyle;rounded=0;orthogonalLoop=1;jettySize=auto;html=1;" edge="1" parent="1" source="Hsg0qd-Us_dWh3IZjGWF-91" target="Hsg0qd-Us_dWh3IZjGWF-31">
          <mxGeometry relative="1" as="geometry" />
        </mxCell>
        <mxCell id="Hsg0qd-Us_dWh3IZjGWF-89" style="edgeStyle=orthogonalEdgeStyle;rounded=0;orthogonalLoop=1;jettySize=auto;html=1;" edge="1" parent="1" source="Hsg0qd-Us_dWh3IZjGWF-30">
          <mxGeometry relative="1" as="geometry">
            <mxPoint x="510" y="1295" as="targetPoint" />
          </mxGeometry>
        </mxCell>
        <mxCell id="Hsg0qd-Us_dWh3IZjGWF-30" value="if (cursor &amp;lt;= 9)" style="rhombus;whiteSpace=wrap;html=1;" vertex="1" parent="1">
          <mxGeometry x="310" y="1250" width="100" height="90" as="geometry" />
        </mxCell>
        <mxCell id="Hsg0qd-Us_dWh3IZjGWF-102" style="edgeStyle=orthogonalEdgeStyle;rounded=0;orthogonalLoop=1;jettySize=auto;html=1;entryX=0.5;entryY=0;entryDx=0;entryDy=0;" edge="1" parent="1" source="Hsg0qd-Us_dWh3IZjGWF-31" target="Hsg0qd-Us_dWh3IZjGWF-32">
          <mxGeometry relative="1" as="geometry" />
        </mxCell>
        <mxCell id="Hsg0qd-Us_dWh3IZjGWF-31" value="&amp;nbsp; &amp;nbsp; counter[inputKey]=customKey;&lt;br&gt;&amp;nbsp; lcd.setCursor(cursor,1);&lt;br&gt;&amp;nbsp; &amp;nbsp; lcd.print(counter[inputKey]);&lt;br&gt;&amp;nbsp; &amp;nbsp; &lt;span style=&quot;&quot;&gt;	&lt;/span&gt;&lt;span style=&quot;&quot;&gt;	&lt;/span&gt;inputKey++;&amp;nbsp; &amp;nbsp; &amp;nbsp; &amp;nbsp; &amp;nbsp; &amp;nbsp; &lt;br&gt;&lt;span style=&quot;white-space: pre;&quot;&gt;	&lt;span style=&quot;white-space: pre;&quot;&gt;	&lt;/span&gt;&lt;/span&gt;cursor++;&amp;nbsp;&amp;nbsp; &amp;nbsp; &amp;nbsp; &amp;nbsp; &amp;nbsp; &amp;nbsp; &amp;nbsp; &amp;nbsp; &amp;nbsp; &amp;nbsp; &amp;nbsp; &amp;nbsp; &amp;nbsp; &amp;nbsp; &amp;nbsp; &amp;nbsp; &amp;nbsp; &amp;nbsp; &amp;nbsp; &amp;nbsp; &amp;nbsp; &amp;nbsp;" style="rounded=1;whiteSpace=wrap;html=1;" vertex="1" parent="1">
          <mxGeometry x="267.5" y="1400" width="185" height="90" as="geometry" />
        </mxCell>
        <mxCell id="Hsg0qd-Us_dWh3IZjGWF-103" style="edgeStyle=orthogonalEdgeStyle;rounded=0;orthogonalLoop=1;jettySize=auto;html=1;" edge="1" parent="1" source="Hsg0qd-Us_dWh3IZjGWF-112" target="Hsg0qd-Us_dWh3IZjGWF-34">
          <mxGeometry relative="1" as="geometry" />
        </mxCell>
        <mxCell id="Hsg0qd-Us_dWh3IZjGWF-110" style="edgeStyle=orthogonalEdgeStyle;rounded=0;orthogonalLoop=1;jettySize=auto;html=1;" edge="1" parent="1" source="Hsg0qd-Us_dWh3IZjGWF-32">
          <mxGeometry relative="1" as="geometry">
            <mxPoint x="560" y="1605" as="targetPoint" />
          </mxGeometry>
        </mxCell>
        <mxCell id="Hsg0qd-Us_dWh3IZjGWF-32" value="&amp;nbsp;if ((int(showNumber) !=0) &amp;amp;&amp;amp; (int(showNumber)%1000==0))" style="rhombus;whiteSpace=wrap;html=1;" vertex="1" parent="1">
          <mxGeometry x="250" y="1550" width="220" height="110" as="geometry" />
        </mxCell>
        <mxCell id="Hsg0qd-Us_dWh3IZjGWF-104" style="edgeStyle=orthogonalEdgeStyle;rounded=0;orthogonalLoop=1;jettySize=auto;html=1;" edge="1" parent="1" source="Hsg0qd-Us_dWh3IZjGWF-34" target="Hsg0qd-Us_dWh3IZjGWF-35">
          <mxGeometry relative="1" as="geometry" />
        </mxCell>
        <mxCell id="Hsg0qd-Us_dWh3IZjGWF-34" value="&amp;nbsp;toRound = int(showNumber)/1000;" style="rounded=1;whiteSpace=wrap;html=1;" vertex="1" parent="1">
          <mxGeometry x="290" y="1730" width="140" height="60" as="geometry" />
        </mxCell>
        <mxCell id="Hsg0qd-Us_dWh3IZjGWF-105" style="edgeStyle=orthogonalEdgeStyle;rounded=0;orthogonalLoop=1;jettySize=auto;html=1;entryX=0.5;entryY=0;entryDx=0;entryDy=0;" edge="1" parent="1" source="Hsg0qd-Us_dWh3IZjGWF-115" target="Hsg0qd-Us_dWh3IZjGWF-36">
          <mxGeometry relative="1" as="geometry" />
        </mxCell>
        <mxCell id="Hsg0qd-Us_dWh3IZjGWF-106" style="edgeStyle=orthogonalEdgeStyle;rounded=0;orthogonalLoop=1;jettySize=auto;html=1;" edge="1" parent="1" source="Hsg0qd-Us_dWh3IZjGWF-35">
          <mxGeometry relative="1" as="geometry">
            <mxPoint x="510" y="1890" as="targetPoint" />
          </mxGeometry>
        </mxCell>
        <mxCell id="Hsg0qd-Us_dWh3IZjGWF-35" value="&amp;nbsp; if (digitalRead&lt;br&gt;(BUTTON)==HIGH)" style="rhombus;whiteSpace=wrap;html=1;" vertex="1" parent="1">
          <mxGeometry x="295" y="1840" width="130" height="100" as="geometry" />
        </mxCell>
        <mxCell id="Hsg0qd-Us_dWh3IZjGWF-107" style="edgeStyle=orthogonalEdgeStyle;rounded=0;orthogonalLoop=1;jettySize=auto;html=1;" edge="1" parent="1" source="Hsg0qd-Us_dWh3IZjGWF-36" target="Hsg0qd-Us_dWh3IZjGWF-37">
          <mxGeometry relative="1" as="geometry" />
        </mxCell>
        <mxCell id="Hsg0qd-Us_dWh3IZjGWF-36" value="&amp;nbsp;int prCounter = atoi(counter);&amp;nbsp;&amp;nbsp;" style="rounded=1;whiteSpace=wrap;html=1;" vertex="1" parent="1">
          <mxGeometry x="300" y="2020" width="120" height="60" as="geometry" />
        </mxCell>
        <mxCell id="Hsg0qd-Us_dWh3IZjGWF-108" style="edgeStyle=orthogonalEdgeStyle;rounded=0;orthogonalLoop=1;jettySize=auto;html=1;entryX=0.5;entryY=0;entryDx=0;entryDy=0;" edge="1" parent="1" source="Hsg0qd-Us_dWh3IZjGWF-119" target="Hsg0qd-Us_dWh3IZjGWF-38">
          <mxGeometry relative="1" as="geometry" />
        </mxCell>
        <mxCell id="Hsg0qd-Us_dWh3IZjGWF-117" style="edgeStyle=orthogonalEdgeStyle;rounded=0;orthogonalLoop=1;jettySize=auto;html=1;" edge="1" parent="1" source="Hsg0qd-Us_dWh3IZjGWF-37">
          <mxGeometry relative="1" as="geometry">
            <mxPoint x="540" y="2180" as="targetPoint" />
          </mxGeometry>
        </mxCell>
        <mxCell id="Hsg0qd-Us_dWh3IZjGWF-37" value="if (showNumber &amp;lt;= prCounter)" style="rhombus;whiteSpace=wrap;html=1;" vertex="1" parent="1">
          <mxGeometry x="297.5" y="2130" width="125" height="100" as="geometry" />
        </mxCell>
        <mxCell id="Hsg0qd-Us_dWh3IZjGWF-38" value="&amp;nbsp;lcd.setCursor(0, 1);&amp;nbsp;&amp;nbsp; &amp;nbsp;lcd.print(showNumber);&lt;br&gt;showNumber++;&amp;nbsp; &amp;nbsp; &amp;nbsp; &amp;nbsp; &amp;nbsp; &amp;nbsp; &amp;nbsp; &amp;nbsp; &amp;nbsp; &amp;nbsp; &amp;nbsp; &amp;nbsp; &amp;nbsp; &amp;nbsp; &amp;nbsp;&amp;nbsp; &amp;nbsp; &amp;nbsp; &amp;nbsp; &amp;nbsp; &amp;nbsp; &amp;nbsp; &amp;nbsp; &amp;nbsp; &amp;nbsp;&amp;nbsp;" style="rounded=1;whiteSpace=wrap;html=1;align=left;" vertex="1" parent="1">
          <mxGeometry x="295" y="2310" width="130" height="70" as="geometry" />
        </mxCell>
        <mxCell id="Hsg0qd-Us_dWh3IZjGWF-124" style="rounded=0;orthogonalLoop=1;jettySize=auto;html=1;" edge="1" parent="1" source="Hsg0qd-Us_dWh3IZjGWF-39">
          <mxGeometry relative="1" as="geometry">
            <mxPoint x="790" y="230" as="targetPoint" />
          </mxGeometry>
        </mxCell>
        <mxCell id="Hsg0qd-Us_dWh3IZjGWF-39" value="&lt;b&gt;void start_display&lt;/b&gt;(char message[],char idleState[])&amp;nbsp;" style="rounded=0;whiteSpace=wrap;html=1;" vertex="1" parent="1">
          <mxGeometry x="730" y="105" width="120" height="60" as="geometry" />
        </mxCell>
        <mxCell id="Hsg0qd-Us_dWh3IZjGWF-125" style="edgeStyle=orthogonalEdgeStyle;rounded=0;orthogonalLoop=1;jettySize=auto;html=1;entryX=0.5;entryY=0;entryDx=0;entryDy=0;" edge="1" parent="1" source="Hsg0qd-Us_dWh3IZjGWF-41" target="Hsg0qd-Us_dWh3IZjGWF-42">
          <mxGeometry relative="1" as="geometry" />
        </mxCell>
        <mxCell id="Hsg0qd-Us_dWh3IZjGWF-41" value="&lt;div&gt;&amp;nbsp; lcd.clear();&lt;/div&gt;&lt;div&gt;&amp;nbsp; lcd.setCursor(0, 0);&lt;/div&gt;&lt;div&gt;&amp;nbsp; lcd.print(message);&lt;/div&gt;&lt;div&gt;&amp;nbsp; lcd.setCursor(0, 1);&lt;/div&gt;&lt;div&gt;&lt;br&gt;&lt;/div&gt;" style="rounded=0;whiteSpace=wrap;html=1;" vertex="1" parent="1">
          <mxGeometry x="725" y="240" width="130" height="80" as="geometry" />
        </mxCell>
        <mxCell id="Hsg0qd-Us_dWh3IZjGWF-127" style="edgeStyle=orthogonalEdgeStyle;rounded=0;orthogonalLoop=1;jettySize=auto;html=1;entryX=0.5;entryY=0;entryDx=0;entryDy=0;" edge="1" parent="1" source="Hsg0qd-Us_dWh3IZjGWF-130" target="Hsg0qd-Us_dWh3IZjGWF-43">
          <mxGeometry relative="1" as="geometry" />
        </mxCell>
        <mxCell id="Hsg0qd-Us_dWh3IZjGWF-128" style="edgeStyle=orthogonalEdgeStyle;rounded=0;orthogonalLoop=1;jettySize=auto;html=1;" edge="1" parent="1" source="Hsg0qd-Us_dWh3IZjGWF-42">
          <mxGeometry relative="1" as="geometry">
            <mxPoint x="940" y="430" as="targetPoint" />
          </mxGeometry>
        </mxCell>
        <mxCell id="Hsg0qd-Us_dWh3IZjGWF-42" value="&amp;nbsp; if (idleState==&quot;Input&quot;)" style="rhombus;whiteSpace=wrap;html=1;" vertex="1" parent="1">
          <mxGeometry x="730" y="380" width="120" height="100" as="geometry" />
        </mxCell>
        <mxCell id="Hsg0qd-Us_dWh3IZjGWF-132" style="edgeStyle=orthogonalEdgeStyle;rounded=0;orthogonalLoop=1;jettySize=auto;html=1;" edge="1" parent="1" source="Hsg0qd-Us_dWh3IZjGWF-43" target="Hsg0qd-Us_dWh3IZjGWF-44">
          <mxGeometry relative="1" as="geometry" />
        </mxCell>
        <mxCell id="Hsg0qd-Us_dWh3IZjGWF-43" value="&amp;nbsp;lcd.print(&quot;Rp.&quot;);" style="rounded=1;whiteSpace=wrap;html=1;" vertex="1" parent="1">
          <mxGeometry x="730" y="550" width="120" height="60" as="geometry" />
        </mxCell>
        <mxCell id="Hsg0qd-Us_dWh3IZjGWF-133" style="edgeStyle=orthogonalEdgeStyle;rounded=0;orthogonalLoop=1;jettySize=auto;html=1;" edge="1" parent="1" source="Hsg0qd-Us_dWh3IZjGWF-44">
          <mxGeometry relative="1" as="geometry">
            <mxPoint x="930" y="720" as="targetPoint" />
          </mxGeometry>
        </mxCell>
        <mxCell id="Hsg0qd-Us_dWh3IZjGWF-135" style="edgeStyle=orthogonalEdgeStyle;rounded=0;orthogonalLoop=1;jettySize=auto;html=1;entryX=0.5;entryY=0;entryDx=0;entryDy=0;" edge="1" parent="1" source="Hsg0qd-Us_dWh3IZjGWF-142" target="Hsg0qd-Us_dWh3IZjGWF-45">
          <mxGeometry relative="1" as="geometry" />
        </mxCell>
        <mxCell id="Hsg0qd-Us_dWh3IZjGWF-44" value="else if (idleState==&lt;br&gt;&quot;NozzleReady&quot;)" style="rhombus;whiteSpace=wrap;html=1;" vertex="1" parent="1">
          <mxGeometry x="730" y="670" width="120" height="100" as="geometry" />
        </mxCell>
        <mxCell id="Hsg0qd-Us_dWh3IZjGWF-136" style="edgeStyle=orthogonalEdgeStyle;rounded=0;orthogonalLoop=1;jettySize=auto;html=1;entryX=0.5;entryY=0;entryDx=0;entryDy=0;" edge="1" parent="1" source="Hsg0qd-Us_dWh3IZjGWF-45" target="Hsg0qd-Us_dWh3IZjGWF-46">
          <mxGeometry relative="1" as="geometry" />
        </mxCell>
        <mxCell id="Hsg0qd-Us_dWh3IZjGWF-45" value="&lt;div&gt;&amp;nbsp; &amp;nbsp;lcd.clear();&lt;/div&gt;&lt;div&gt;&amp;nbsp; &amp;nbsp; lcd.print(message);&lt;/div&gt;&lt;div&gt;&amp;nbsp; &amp;nbsp; lcd.setCursor(0, 1);&lt;/div&gt;" style="rounded=0;whiteSpace=wrap;html=1;" vertex="1" parent="1">
          <mxGeometry x="730" y="840" width="120" height="60" as="geometry" />
        </mxCell>
        <mxCell id="Hsg0qd-Us_dWh3IZjGWF-138" style="edgeStyle=orthogonalEdgeStyle;rounded=0;orthogonalLoop=1;jettySize=auto;html=1;" edge="1" parent="1" source="Hsg0qd-Us_dWh3IZjGWF-46">
          <mxGeometry relative="1" as="geometry">
            <mxPoint x="920" y="995" as="targetPoint" />
          </mxGeometry>
        </mxCell>
        <mxCell id="Hsg0qd-Us_dWh3IZjGWF-140" style="edgeStyle=orthogonalEdgeStyle;rounded=0;orthogonalLoop=1;jettySize=auto;html=1;entryX=0.5;entryY=0;entryDx=0;entryDy=0;" edge="1" parent="1" source="Hsg0qd-Us_dWh3IZjGWF-144" target="Hsg0qd-Us_dWh3IZjGWF-47">
          <mxGeometry relative="1" as="geometry" />
        </mxCell>
        <mxCell id="Hsg0qd-Us_dWh3IZjGWF-46" value="else if (idleState&lt;br&gt;==&quot;End&quot;)" style="rhombus;whiteSpace=wrap;html=1;" vertex="1" parent="1">
          <mxGeometry x="742.5" y="950" width="95" height="90" as="geometry" />
        </mxCell>
        <mxCell id="Hsg0qd-Us_dWh3IZjGWF-47" value="lcd.print(&quot;Terima Kasih&quot;);" style="rounded=1;whiteSpace=wrap;html=1;" vertex="1" parent="1">
          <mxGeometry x="732.5" y="1110" width="115" height="50" as="geometry" />
        </mxCell>
        <mxCell id="Hsg0qd-Us_dWh3IZjGWF-61" style="edgeStyle=orthogonalEdgeStyle;rounded=0;orthogonalLoop=1;jettySize=auto;html=1;exitX=0.5;exitY=1;exitDx=0;exitDy=0;" edge="1" parent="1" source="Hsg0qd-Us_dWh3IZjGWF-15" target="Hsg0qd-Us_dWh3IZjGWF-15">
          <mxGeometry relative="1" as="geometry" />
        </mxCell>
        <mxCell id="Hsg0qd-Us_dWh3IZjGWF-72" value="" style="edgeStyle=orthogonalEdgeStyle;rounded=0;orthogonalLoop=1;jettySize=auto;html=1;" edge="1" parent="1" source="Hsg0qd-Us_dWh3IZjGWF-13" target="Hsg0qd-Us_dWh3IZjGWF-73">
          <mxGeometry relative="1" as="geometry">
            <mxPoint x="350" y="510" as="targetPoint" />
            <mxPoint x="350" y="390" as="sourcePoint" />
          </mxGeometry>
        </mxCell>
        <mxCell id="Hsg0qd-Us_dWh3IZjGWF-73" value="true" style="text;html=1;strokeColor=none;fillColor=none;align=center;verticalAlign=middle;whiteSpace=wrap;rounded=0;" vertex="1" parent="1">
          <mxGeometry x="320" y="435" width="60" height="30" as="geometry" />
        </mxCell>
        <mxCell id="Hsg0qd-Us_dWh3IZjGWF-77" value="false" style="text;html=1;strokeColor=none;fillColor=none;align=center;verticalAlign=middle;whiteSpace=wrap;rounded=0;" vertex="1" parent="1">
          <mxGeometry x="395" y="335" width="60" height="30" as="geometry" />
        </mxCell>
        <mxCell id="Hsg0qd-Us_dWh3IZjGWF-81" value="" style="rounded=0;orthogonalLoop=1;jettySize=auto;html=1;" edge="1" parent="1" source="Hsg0qd-Us_dWh3IZjGWF-19" target="Hsg0qd-Us_dWh3IZjGWF-82">
          <mxGeometry relative="1" as="geometry">
            <mxPoint x="360" y="785" as="sourcePoint" />
            <mxPoint x="360" y="860" as="targetPoint" />
          </mxGeometry>
        </mxCell>
        <mxCell id="Hsg0qd-Us_dWh3IZjGWF-82" value="true" style="text;html=1;strokeColor=none;fillColor=none;align=center;verticalAlign=middle;whiteSpace=wrap;rounded=0;" vertex="1" parent="1">
          <mxGeometry x="330" y="810" width="60" height="30" as="geometry" />
        </mxCell>
        <mxCell id="Hsg0qd-Us_dWh3IZjGWF-83" value="false" style="text;html=1;strokeColor=none;fillColor=none;align=center;verticalAlign=middle;whiteSpace=wrap;rounded=0;" vertex="1" parent="1">
          <mxGeometry x="425" y="720" width="60" height="30" as="geometry" />
        </mxCell>
        <mxCell id="Hsg0qd-Us_dWh3IZjGWF-90" value="" style="edgeStyle=orthogonalEdgeStyle;rounded=0;orthogonalLoop=1;jettySize=auto;html=1;" edge="1" parent="1" source="Hsg0qd-Us_dWh3IZjGWF-30" target="Hsg0qd-Us_dWh3IZjGWF-91">
          <mxGeometry relative="1" as="geometry">
            <mxPoint x="360" y="1330" as="sourcePoint" />
            <mxPoint x="360" y="1400" as="targetPoint" />
          </mxGeometry>
        </mxCell>
        <mxCell id="Hsg0qd-Us_dWh3IZjGWF-91" value="true" style="text;html=1;strokeColor=none;fillColor=none;align=center;verticalAlign=middle;whiteSpace=wrap;rounded=0;" vertex="1" parent="1">
          <mxGeometry x="330" y="1355" width="60" height="30" as="geometry" />
        </mxCell>
        <mxCell id="Hsg0qd-Us_dWh3IZjGWF-96" value="false" style="text;html=1;strokeColor=none;fillColor=none;align=center;verticalAlign=middle;whiteSpace=wrap;rounded=0;" vertex="1" parent="1">
          <mxGeometry x="425" y="1260" width="60" height="30" as="geometry" />
        </mxCell>
        <mxCell id="Hsg0qd-Us_dWh3IZjGWF-97" value="false" style="text;html=1;strokeColor=none;fillColor=none;align=center;verticalAlign=middle;whiteSpace=wrap;rounded=0;" vertex="1" parent="1">
          <mxGeometry x="425" y="1130" width="60" height="30" as="geometry" />
        </mxCell>
        <mxCell id="Hsg0qd-Us_dWh3IZjGWF-100" value="" style="edgeStyle=orthogonalEdgeStyle;rounded=0;orthogonalLoop=1;jettySize=auto;html=1;entryX=0.5;entryY=0;entryDx=0;entryDy=0;" edge="1" parent="1" source="Hsg0qd-Us_dWh3IZjGWF-29" target="Hsg0qd-Us_dWh3IZjGWF-99">
          <mxGeometry relative="1" as="geometry">
            <mxPoint x="360" y="1200" as="sourcePoint" />
            <mxPoint x="360" y="1250" as="targetPoint" />
          </mxGeometry>
        </mxCell>
        <mxCell id="Hsg0qd-Us_dWh3IZjGWF-99" value="true" style="text;html=1;strokeColor=none;fillColor=none;align=center;verticalAlign=middle;whiteSpace=wrap;rounded=0;" vertex="1" parent="1">
          <mxGeometry x="330" y="1210" width="60" height="30" as="geometry" />
        </mxCell>
        <mxCell id="Hsg0qd-Us_dWh3IZjGWF-111" value="" style="edgeStyle=orthogonalEdgeStyle;rounded=0;orthogonalLoop=1;jettySize=auto;html=1;" edge="1" parent="1" source="Hsg0qd-Us_dWh3IZjGWF-32" target="Hsg0qd-Us_dWh3IZjGWF-112">
          <mxGeometry relative="1" as="geometry">
            <mxPoint x="360" y="1660" as="sourcePoint" />
            <mxPoint x="360" y="1730" as="targetPoint" />
          </mxGeometry>
        </mxCell>
        <mxCell id="Hsg0qd-Us_dWh3IZjGWF-112" value="true" style="text;html=1;strokeColor=none;fillColor=none;align=center;verticalAlign=middle;whiteSpace=wrap;rounded=0;" vertex="1" parent="1">
          <mxGeometry x="330" y="1680" width="60" height="30" as="geometry" />
        </mxCell>
        <mxCell id="Hsg0qd-Us_dWh3IZjGWF-113" value="false" style="text;html=1;strokeColor=none;fillColor=none;align=center;verticalAlign=middle;whiteSpace=wrap;rounded=0;" vertex="1" parent="1">
          <mxGeometry x="485" y="1570" width="60" height="30" as="geometry" />
        </mxCell>
        <mxCell id="Hsg0qd-Us_dWh3IZjGWF-116" value="" style="edgeStyle=orthogonalEdgeStyle;rounded=0;orthogonalLoop=1;jettySize=auto;html=1;entryX=0.5;entryY=0;entryDx=0;entryDy=0;" edge="1" parent="1" source="Hsg0qd-Us_dWh3IZjGWF-35" target="Hsg0qd-Us_dWh3IZjGWF-115">
          <mxGeometry relative="1" as="geometry">
            <mxPoint x="360" y="1940" as="sourcePoint" />
            <mxPoint x="360" y="1990" as="targetPoint" />
          </mxGeometry>
        </mxCell>
        <mxCell id="Hsg0qd-Us_dWh3IZjGWF-115" value="true" style="text;html=1;strokeColor=none;fillColor=none;align=center;verticalAlign=middle;whiteSpace=wrap;rounded=0;" vertex="1" parent="1">
          <mxGeometry x="330" y="1950" width="60" height="30" as="geometry" />
        </mxCell>
        <mxCell id="Hsg0qd-Us_dWh3IZjGWF-118" value="false" style="text;html=1;strokeColor=none;fillColor=none;align=center;verticalAlign=middle;whiteSpace=wrap;rounded=0;" vertex="1" parent="1">
          <mxGeometry x="430" y="1860" width="60" height="30" as="geometry" />
        </mxCell>
        <mxCell id="Hsg0qd-Us_dWh3IZjGWF-120" value="" style="edgeStyle=orthogonalEdgeStyle;rounded=0;orthogonalLoop=1;jettySize=auto;html=1;entryX=0.5;entryY=0;entryDx=0;entryDy=0;" edge="1" parent="1" source="Hsg0qd-Us_dWh3IZjGWF-37" target="Hsg0qd-Us_dWh3IZjGWF-119">
          <mxGeometry relative="1" as="geometry">
            <mxPoint x="360" y="2230" as="sourcePoint" />
            <mxPoint x="360" y="2310" as="targetPoint" />
          </mxGeometry>
        </mxCell>
        <mxCell id="Hsg0qd-Us_dWh3IZjGWF-119" value="true" style="text;html=1;strokeColor=none;fillColor=none;align=center;verticalAlign=middle;whiteSpace=wrap;rounded=0;" vertex="1" parent="1">
          <mxGeometry x="330" y="2250" width="60" height="30" as="geometry" />
        </mxCell>
        <mxCell id="Hsg0qd-Us_dWh3IZjGWF-121" value="false" style="text;html=1;strokeColor=none;fillColor=none;align=center;verticalAlign=middle;whiteSpace=wrap;rounded=0;" vertex="1" parent="1">
          <mxGeometry x="440" y="2150" width="60" height="30" as="geometry" />
        </mxCell>
        <mxCell id="Hsg0qd-Us_dWh3IZjGWF-129" value="" style="edgeStyle=orthogonalEdgeStyle;rounded=0;orthogonalLoop=1;jettySize=auto;html=1;entryX=0.5;entryY=0;entryDx=0;entryDy=0;" edge="1" parent="1" source="Hsg0qd-Us_dWh3IZjGWF-42" target="Hsg0qd-Us_dWh3IZjGWF-130">
          <mxGeometry relative="1" as="geometry">
            <mxPoint x="790" y="480" as="sourcePoint" />
            <mxPoint x="790" y="550" as="targetPoint" />
          </mxGeometry>
        </mxCell>
        <mxCell id="Hsg0qd-Us_dWh3IZjGWF-130" value="true" style="text;html=1;strokeColor=none;fillColor=none;align=center;verticalAlign=middle;whiteSpace=wrap;rounded=0;" vertex="1" parent="1">
          <mxGeometry x="760" y="495" width="60" height="30" as="geometry" />
        </mxCell>
        <mxCell id="Hsg0qd-Us_dWh3IZjGWF-131" value="false" style="text;html=1;strokeColor=none;fillColor=none;align=center;verticalAlign=middle;whiteSpace=wrap;rounded=0;" vertex="1" parent="1">
          <mxGeometry x="860" y="400" width="60" height="30" as="geometry" />
        </mxCell>
        <mxCell id="Hsg0qd-Us_dWh3IZjGWF-141" value="" style="edgeStyle=orthogonalEdgeStyle;rounded=0;orthogonalLoop=1;jettySize=auto;html=1;entryX=0.5;entryY=0;entryDx=0;entryDy=0;" edge="1" parent="1" source="Hsg0qd-Us_dWh3IZjGWF-44" target="Hsg0qd-Us_dWh3IZjGWF-142">
          <mxGeometry relative="1" as="geometry">
            <mxPoint x="790" y="770" as="sourcePoint" />
            <mxPoint x="790" y="840" as="targetPoint" />
          </mxGeometry>
        </mxCell>
        <mxCell id="Hsg0qd-Us_dWh3IZjGWF-142" value="true" style="text;html=1;strokeColor=none;fillColor=none;align=center;verticalAlign=middle;whiteSpace=wrap;rounded=0;" vertex="1" parent="1">
          <mxGeometry x="760" y="785" width="60" height="30" as="geometry" />
        </mxCell>
        <mxCell id="Hsg0qd-Us_dWh3IZjGWF-143" value="false" style="text;html=1;strokeColor=none;fillColor=none;align=center;verticalAlign=middle;whiteSpace=wrap;rounded=0;" vertex="1" parent="1">
          <mxGeometry x="855" y="690" width="60" height="30" as="geometry" />
        </mxCell>
        <mxCell id="Hsg0qd-Us_dWh3IZjGWF-145" value="" style="edgeStyle=orthogonalEdgeStyle;rounded=0;orthogonalLoop=1;jettySize=auto;html=1;entryX=0.5;entryY=0;entryDx=0;entryDy=0;" edge="1" parent="1" source="Hsg0qd-Us_dWh3IZjGWF-46" target="Hsg0qd-Us_dWh3IZjGWF-144">
          <mxGeometry relative="1" as="geometry">
            <mxPoint x="790" y="1040" as="sourcePoint" />
            <mxPoint x="790" y="1110" as="targetPoint" />
          </mxGeometry>
        </mxCell>
        <mxCell id="Hsg0qd-Us_dWh3IZjGWF-144" value="true" style="text;html=1;strokeColor=none;fillColor=none;align=center;verticalAlign=middle;whiteSpace=wrap;rounded=0;" vertex="1" parent="1">
          <mxGeometry x="760" y="1060" width="60" height="30" as="geometry" />
        </mxCell>
        <mxCell id="Hsg0qd-Us_dWh3IZjGWF-146" value="false" style="text;html=1;strokeColor=none;fillColor=none;align=center;verticalAlign=middle;whiteSpace=wrap;rounded=0;" vertex="1" parent="1">
          <mxGeometry x="848" y="960" width="60" height="30" as="geometry" />
        </mxCell>
      </root>
    </mxGraphModel>
  </diagram>
</mxfile>
